<?xml version="1.0" encoding="UTF-8"?>
<svg width="13px" height="12px" viewBox="0 0 13 12" version="1.1" xmlns="http://www.w3.org/2000/svg" xmlns:xlink="http://www.w3.org/1999/xlink">
    <!-- Generator: Sketch 48.1 (47250) - http://www.bohemiancoding.com/sketch -->
    <title></title>
    <desc>Created with Sketch.</desc>
    <defs></defs>
    <g id="Page-1" stroke="none" stroke-width="1" fill="none" fill-rule="evenodd">
        <path d="M12.0234375,3.671875 C12.3411474,4.41146203 12.5,5.18749594 12.5,6 C12.5,6.81250406 12.3411474,7.58853797 12.0234375,8.328125 C11.7057276,9.06771203 11.2786485,9.70572648 10.7421875,10.2421875 C10.2057265,10.7786485 9.56771203,11.2057276 8.828125,11.5234375 C8.08853797,11.8411474 7.31250406,12 6.5,12 C5.60416219,12 4.7526082,11.8111998 3.9453125,11.4335938 C3.1380168,11.0559877 2.45052367,10.5234409 1.8828125,9.8359375 C1.84635398,9.78385391 1.82942707,9.72526074 1.83203125,9.66015625 C1.83463543,9.59505176 1.85677063,9.54166688 1.8984375,9.5 L2.96875,8.421875 C3.02083359,8.37499977 3.08593711,8.3515625 3.1640625,8.3515625 C3.24739625,8.36197922 3.30729148,8.39322891 3.34375,8.4453125 C3.72396023,8.94010664 4.19010141,9.32291531 4.7421875,9.59375 C5.29427359,9.86458469 5.88020523,10 6.5,10 C7.04166938,10 7.55859129,9.8945323 8.05078125,9.68359375 C8.54297121,9.4726552 8.9687482,9.1875018 9.328125,8.828125 C9.6875018,8.4687482 9.9726552,8.04297121 10.1835938,7.55078125 C10.3945323,7.05859129 10.5,6.54166937 10.5,6 C10.5,5.45833063 10.3945323,4.94140871 10.1835938,4.44921875 C9.9726552,3.95702879 9.6875018,3.5312518 9.328125,3.171875 C8.9687482,2.8124982 8.54297121,2.5273448 8.05078125,2.31640625 C7.55859129,2.1054677 7.04166938,2 6.5,2 C5.98958078,2 5.50000234,2.09244699 5.03125,2.27734375 C4.56249766,2.46224051 4.14583516,2.72656078 3.78125,3.0703125 L4.8515625,4.1484375 C5.01302164,4.30468828 5.04947961,4.48437398 4.9609375,4.6875 C4.87239539,4.89583437 4.71875109,5 4.5,5 L1,5 C0.864582656,5 0.747396328,4.95052133 0.6484375,4.8515625 C0.549478672,4.75260367 0.5,4.63541734 0.5,4.5 L0.5,1 C0.5,0.781248906 0.604165625,0.627604609 0.8125,0.5390625 C1.01562602,0.450520391 1.19531172,0.486978359 1.3515625,0.6484375 L2.3671875,1.65625 C2.92448195,1.1302057 3.56119434,0.722657695 4.27734375,0.43359375 C4.99349316,0.144529805 5.73437117,0 6.5,0 C7.31250406,0 8.08853797,0.158852578 8.828125,0.4765625 C9.56771203,0.794272422 10.2057265,1.22135148 10.7421875,1.7578125 C11.2786485,2.29427352 11.7057276,2.93228797 12.0234375,3.671875 Z" id="" fill="#000000"></path>
    </g>
</svg>